<?xml version="1.0" encoding="utf-8"?>
<!-- Generator: Adobe Illustrator 16.0.0, SVG Export Plug-In . SVG Version: 6.00 Build 0)  -->
<!DOCTYPE svg PUBLIC "-//W3C//DTD SVG 1.1//EN" "http://www.w3.org/Graphics/SVG/1.1/DTD/svg11.dtd">
<svg version="1.1" id="Layer_1" xmlns="http://www.w3.org/2000/svg" xmlns:xlink="http://www.w3.org/1999/xlink" x="0px" y="0px"
	 width="258px" height="258px" viewBox="0 0 258 258" enable-background="new 0 0 258 258" xml:space="preserve">
<g>
	<path fill="#0066D0" d="M249,246.667h-89v-55.484c0-17.016-11.5-25.516-34.5-25.516c-7.25,0-14.485,2.328-21.719,7.016
		C95.25,178.214,91,184.37,91,191.183v55.484H6v-85h54.797c16.797,0,25.203-11.5,25.203-34.5c0-7.25-2.531-14.812-7.562-22.672
		c-5.047-7.891-10.922-11.828-17.641-11.828H6v-86h85v54.797c0,6.719,4.25,12.812,12.781,18.281
		c7.234,4.609,14.469,6.922,21.719,6.922c23,0,34.5-8.406,34.5-25.203V6.667h89v86h-55.484c-6.812,0-12.766,3.938-17.859,11.828
		c-5.109,7.859-7.656,15.422-7.656,22.672c0,23,8.5,34.5,25.516,34.5H249V246.667z"/>
</g>
</svg>
